<svg width="90" height="90" viewBox="0 0 90 90" fill="none" xmlns="http://www.w3.org/2000/svg">
<path d="M41.25 0V7.73625C18.705 9.6225 0.952501 28.0087 0.116251 47.3438C0.101251 47.8125 0 48.2812 0 48.75H7.5C7.5 48.4575 7.8375 47.7112 9.49125 46.7587C11.1488 45.8062 13.83 45 16.875 45C19.9238 45 22.6012 45.8062 24.2587 46.7587C25.9125 47.7112 26.25 48.4575 26.25 48.75H33.75C33.75 48.705 34.0575 47.7675 36.0938 46.7587C38.13 45.7462 41.3663 45 45 45C48.6337 45 51.87 45.75 53.9062 46.7587C55.9425 47.7712 56.25 48.7088 56.25 48.75H63.75C63.75 48.4575 64.0875 47.7112 65.7413 46.7587C67.3988 45.8062 70.08 45 73.125 45C76.1738 45 78.8512 45.8062 80.5087 46.7587C82.1625 47.7112 82.5 48.4575 82.5 48.75H90C89.9989 48.2789 89.96 47.8086 89.8837 47.3438C89.0475 28.0087 71.295 9.6225 48.75 7.7325V0H41.25ZM45 15C61.305 15 75.2362 26.0738 80.3925 38.5538C78.0364 37.8409 75.5866 37.4857 73.125 37.5C68.9212 37.5 65.0813 38.4375 61.9913 40.1962C61.245 40.62 60.5437 41.1637 59.8837 41.7188C59.0747 41.095 58.2113 40.5453 57.3038 40.0763C53.9063 38.3813 49.6425 37.5 45 37.5C40.3575 37.5 36.0937 38.3775 32.6962 40.08C31.815 40.5187 31.0087 41.1188 30.2362 41.7188C30.2062 41.7037 30.1463 41.7338 30.1163 41.7188C29.4615 41.1482 28.7561 40.6386 28.0087 40.1962C24.9187 38.4375 21.075 37.5 16.875 37.5C14.4134 37.4857 11.9636 37.8409 9.6075 38.5538C14.7675 26.0738 28.695 15 45 15ZM41.25 48.75V78.75C41.25 80.8725 39.6225 82.5 37.5 82.5C35.3775 82.5 33.75 80.8725 33.75 78.75V75H26.25V78.75C26.25 84.9187 31.3313 90 37.5 90C43.6687 90 48.75 84.9187 48.75 78.75V48.75H41.25Z" fill="#A7AA00"/>
</svg>
